<svg width="16" height="16" viewBox="0 0 16 16" fill="#000" xmlns="http://www.w3.org/2000/svg">
<path fill-rule="evenodd" clip-rule="evenodd" d="M16 8C16 12.4183 12.4183 16 8 16C3.58172 16 0 12.4183 0 8C0 3.58172 3.58172 0 8 0C12.4183 0 16 3.58172 16 8ZM4.29289 4.29289C4.68342 3.90237 5.31658 3.90237 5.70711 4.29289L7.82843 6.41421L9.94975 4.29289C10.3403 3.90237 10.9734 3.90237 11.364 4.29289C11.7545 4.68342 11.7545 5.31658 11.364 5.70711L9.24264 7.82843L11.364 9.94975C11.7545 10.3403 11.7545 10.9734 11.364 11.364C10.9734 11.7545 10.3403 11.7545 9.94975 11.364L7.82843 9.24264L5.70711 11.364C5.31658 11.7545 4.68342 11.7545 4.29289 11.364C3.90237 10.9734 3.90237 10.3403 4.29289 9.94975L6.41421 7.82843L4.29289 5.70711C3.90237 5.31658 3.90237 4.68342 4.29289 4.29289Z"/>
</svg>
