<svg width="16" height="16" viewBox="0 0 16 16" fill="#000" xmlns="http://www.w3.org/2000/svg">
<path fill-rule="evenodd" clip-rule="evenodd" d="M8 16C12.4183 16 16 12.4183 16 8C16 3.58172 12.4183 0 8 0C3.58172 0 0 3.58172 0 8C0 12.4183 3.58172 16 8 16ZM7.28571 12.2857C7.28571 12.6802 7.60551 13 8 13C8.39449 13 8.71429 12.6802 8.71429 12.2857V11.5C9.17027 11.4074 9.5947 11.228 9.96956 10.9797L10.6987 11.7088C10.9776 11.9878 11.4299 11.9878 11.7088 11.7088C11.9878 11.4299 11.9878 10.9776 11.7088 10.6987L10.9797 9.96956C11.228 9.5947 11.4074 9.17027 11.5 8.71429H12.2857C12.6802 8.71429 13 8.39449 13 8C13 7.60551 12.6802 7.28571 12.2857 7.28571H11.5C11.4247 6.91483 11.2919 6.56482 11.1114 6.24537L11.7088 5.64793C11.9878 5.36899 11.9878 4.91673 11.7088 4.63778C11.4299 4.35884 10.9776 4.35884 10.6987 4.63778L10.1719 5.16461C9.75024 4.84117 9.25439 4.60965 8.71429 4.50001V3.71429C8.71429 3.3198 8.39449 3 8 3C7.60551 3 7.28571 3.3198 7.28571 3.71429V4.50001C6.82973 4.59257 6.4053 4.77201 6.03044 5.02028L5.64793 4.63778C5.36899 4.35883 4.91673 4.35883 4.63778 4.63778C4.35883 4.91673 4.35883 5.36899 4.63778 5.64793L5.02028 6.03044C4.77201 6.4053 4.59257 6.82973 4.50001 7.28571H3.71429C3.3198 7.28571 3 7.60551 3 8C3 8.39449 3.3198 8.71429 3.71429 8.71429H4.50001C4.60965 9.25439 4.84117 9.75024 5.16461 10.1719L4.63778 10.6987C4.35883 10.9776 4.35883 11.4299 4.63778 11.7088C4.91673 11.9878 5.36899 11.9878 5.64793 11.7088L6.24537 11.1114C6.56482 11.2919 6.91483 11.4247 7.28571 11.5V12.2857ZM8 10.1429C9.18347 10.1429 10.1429 9.18347 10.1429 8C10.1429 6.81653 9.18347 5.85714 8 5.85714C6.81653 5.85714 5.85714 6.81653 5.85714 8C5.85714 9.18347 6.81653 10.1429 8 10.1429Z"/>
</svg>
